# xmcd
#
# Track frame offsets: 
#        150
#        7888
#        25251
#        39850
#        51862
#        67385
#        78060
#        88915
#        103669
#        119444
#        130924
#        145086
#        155075
#        168842
#        189457
#        205522
#        221260
#        236765
#
# Disc length: 3328 seconds
#
# Revision: 0
# Processed by: cddbd v1.5.2PL0 Copyright (c) Steve Scherf et al.
# Submitted via: ExactAudioCopy v1.0b1
#
DISCID=ef0cfe12
DTITLE=Ruud Hermans and Dick Van Altena - Live 'N Easy
DYEAR=2008
DGENRE=Country
TTITLE0=(Turn Out The Light) Love Me Tonight
TTITLE1=Me and Jack
TTITLE2=Chameleon Blues
TTITLE3=Sidewalk Of Chicago
TTITLE4=Words
TTITLE5=Angels Rejoiced Last Night
TTITLE6=Here Comes That Rainbow Again
TTITLE7=Lovin' Her Was Easier
TTITLE8=Waiting For You
TTITLE9=Let's Get It Over With
TTITLE10=Time
TTITLE11=Sunny Song
TTITLE12=Some Days Are Diamonds
TTITLE13=Sundaymoring Coming Down
TTITLE14=Traveller
TTITLE15=Ebony Eyes
TTITLE16=Too Old To Die Young
TTITLE17=Sing Me Back Home
EXTD=
EXTT0=
EXTT1=
EXTT2=
EXTT3=
EXTT4=
EXTT5=
EXTT6=
EXTT7=
EXTT8=
EXTT9=
EXTT10=
EXTT11=
EXTT12=
EXTT13=
EXTT14=
EXTT15=
EXTT16=
EXTT17=
PLAYORDER=
